<svg width="19" height="20" viewBox="0 0 19 20" fill="none" xmlns="http://www.w3.org/2000/svg">
<path d="M18.075 4.525C18.075 6.475 16.9583 8.775 14.725 11.425C14.4583 11.7417 14.025 12.2333 13.425 12.9C12.8417 13.5667 12.4 14.0833 12.1 14.45C11.8167 14.8 11.4667 15.2583 11.05 15.825C10.65 16.375 10.325 16.9083 10.075 17.425C9.84167 17.9417 9.65 18.475 9.5 19.025C9.35 18.475 9.15 17.9417 8.9 17.425C8.66667 16.9083 8.34167 16.375 7.925 15.825C7.525 15.275 7.175 14.825 6.875 14.475C6.575 14.1083 6.13333 13.5917 5.55 12.925C4.96667 12.2583 4.54167 11.7667 4.275 11.45C2.04167 8.8 0.925 6.5 0.925 4.55C0.925 3.61667 1.175 2.80833 1.675 2.125C2.19167 1.44167 2.825 0.999999 3.575 0.8C4.34167 0.583333 5.125 0.533333 5.925 0.649999C6.725 0.766666 7.45833 1.16667 8.125 1.85C8.79167 2.51667 9.25 3.38333 9.5 4.45C9.7 3.55 10.0583 2.79167 10.575 2.175C11.0917 1.54167 11.6583 1.1 12.275 0.849999C12.9083 0.6 13.5667 0.499999 14.25 0.549999C14.95 0.583333 15.575 0.758333 16.125 1.075C16.6917 1.375 17.1583 1.83333 17.525 2.45C17.8917 3.05 18.075 3.74167 18.075 4.525Z" fill="white"/>
</svg>
