<svg width="33" height="16" viewBox="0 0 33 16" fill="none" xmlns="http://www.w3.org/2000/svg">
<path d="M1 7C0.447715 7 4.82823e-08 7.44772 0 8C-4.82823e-08 8.55228 0.447715 9 1 9L1 7ZM32.7071 8.70711C33.0976 8.31659 33.0976 7.68342 32.7071 7.2929L26.3431 0.928934C25.9526 0.53841 25.3195 0.53841 24.9289 0.928934C24.5384 1.31946 24.5384 1.95262 24.9289 2.34315L30.5858 8L24.9289 13.6569C24.5384 14.0474 24.5384 14.6805 24.9289 15.0711C25.3195 15.4616 25.9526 15.4616 26.3431 15.0711L32.7071 8.70711ZM1 9L32 9L32 7L1 7L1 9Z" fill="#6B6B6B"/>
</svg>
