<svg width="156" height="144" viewBox="0 0 156 144" fill="none" xmlns="http://www.w3.org/2000/svg">
<g filter="url(#filter0_d_160_23)">
<path fill-rule="evenodd" clip-rule="evenodd" d="M60.7235 91.7491C82.6172 107.898 109.107 109.355 121.166 94.5785C133.777 79.1254 125.829 51.7704 103.416 33.4794C81.0016 15.1884 52.6087 12.8879 39.9981 28.3409C28.0418 42.9922 34.5654 68.3424 54.3775 86.5226L39.5159 98.9178L25.5043 97.5621L45.0616 103.443L60.7235 91.7491Z" fill="white"/>
</g>
<path d="M80.0748 49.6843C79.891 49.8586 79.6732 49.8906 79.4215 49.7803C79.1697 49.6699 78.8402 49.4679 78.433 49.1743C77.9793 48.8511 77.4247 48.4215 76.7692 47.8856C76.1233 47.3405 75.6118 46.8885 75.2345 46.5296C74.7911 46.8952 73.555 47.9944 71.5262 49.8274C69.4974 51.6603 68.0045 53.0216 67.0474 53.9113C67.5527 54.4245 68.2381 55.0791 69.1037 55.8752C69.8215 56.5543 70.2217 56.9373 70.3043 57.0244C70.4695 57.1985 70.5776 57.39 70.6287 57.5988C70.689 57.8173 70.6369 58.0046 70.4725 58.1606C70.3371 58.2891 70.2174 58.3566 70.1135 58.3633C70.0187 58.3797 69.9025 58.3154 69.7649 58.1703C69.7098 58.1122 69.5729 57.9389 69.3541 57.6502C69.2093 57.42 69.0726 57.2372 68.9441 57.1018C68.5128 56.6472 67.6211 55.7655 66.2691 54.4567C66.1555 54.4726 66.0521 54.4605 65.9589 54.4203C65.8651 54.399 65.7953 54.3641 65.7494 54.3158C65.6943 54.2577 65.6538 54.1859 65.6277 54.1004C65.6017 54.0148 65.6131 53.9396 65.662 53.8749L64.97 53.2908C64.1574 52.6281 63.5768 52.113 63.2281 51.7455C62.9252 51.4263 62.7635 51.1202 62.7429 50.8273C62.7377 50.6668 62.8366 50.4902 63.0398 50.2975C63.0978 50.2425 63.1979 50.2026 63.34 50.1781C63.4913 50.1632 63.5991 50.1896 63.6633 50.2573C63.6817 50.2767 63.7215 50.3767 63.7827 50.5575C63.8628 50.7388 63.958 50.8875 64.0681 51.0036C64.4076 51.3615 64.9271 51.8703 65.6266 52.53L66.3033 53.1561L68.5187 51.2196C68.7504 51.0182 68.9578 50.8398 69.1411 50.6842C69.3341 50.5196 69.4934 50.3776 69.6192 50.2583L74.5012 45.902C73.4791 44.9603 72.991 44.5136 73.0369 44.562C72.0234 43.6488 71.4341 43.1051 71.2689 42.931C71.1129 42.7666 71.0193 42.5614 70.988 42.3153C70.9568 42.0693 71.0233 41.8683 71.1878 41.7122C71.3038 41.6021 71.4233 41.544 71.546 41.5378C71.678 41.5412 71.7944 41.5962 71.8954 41.7026C71.9688 41.7799 72.0374 41.8619 72.1011 41.9485C72.1649 42.035 72.2286 42.1216 72.2924 42.2081C72.4734 42.4958 72.6695 42.7509 72.8806 42.9734C73.0825 43.1862 73.4824 43.5787 74.0804 44.1508C74.6881 44.7138 75.0931 45.0923 75.2955 45.2862C75.4304 45.1766 75.5733 45.1238 75.7241 45.1277C75.8845 45.1225 76.0244 45.1828 76.1437 45.3085C76.1988 45.3666 76.206 45.4516 76.1653 45.5638C76.1246 45.6759 76.0559 45.7778 75.9592 45.8696C76.5108 46.4122 77.5956 47.3037 79.2135 48.544C79.3429 48.6417 79.5154 48.717 79.731 48.7698C79.9557 48.8323 80.0772 48.8732 80.0956 48.8926C80.1873 48.9893 80.2358 49.1179 80.241 49.2784C80.2463 49.4388 80.1908 49.5741 80.0748 49.6843ZM79.6207 67.5412C79.5047 67.6514 79.2677 67.5178 78.9098 67.1406C78.8455 67.0729 78.9317 66.1273 79.1682 64.3038C79.4237 62.4809 79.662 60.9498 79.8832 59.7107C79.9161 59.5324 80.0352 58.9507 80.2403 57.9658C80.552 56.5122 80.7309 55.6256 80.777 55.3062L79.6323 56.3371L78.5304 57.355C77.8436 58.0066 77.0897 58.7036 76.2685 59.4459C75.4565 60.1979 74.8043 60.7891 74.312 61.2194C74.1868 61.3199 74.0299 61.3676 73.8414 61.3627C73.6621 61.3674 73.5265 61.3214 73.4348 61.2247C73.3338 61.1183 73.2894 61.0134 73.3016 60.9099C73.3326 60.807 73.4399 60.6684 73.6237 60.494C73.7398 60.3839 74.116 60.0637 74.7524 59.5334C75.9474 58.5651 76.9221 57.723 77.6765 57.0072C78.2762 56.4382 78.8513 55.911 79.4016 55.4256C79.9616 54.9311 80.3045 54.6241 80.4303 54.5048L80.8648 54.1201L80.9083 54.0788C81.0147 53.9779 81.1107 53.9144 81.1963 53.8883C81.3007 53.8628 81.4034 53.9032 81.5043 54.0096L81.5731 54.0822C81.6741 54.1886 81.6779 54.5801 81.5847 55.2567C81.5103 55.9338 81.3737 56.8261 81.1748 57.9338C81.1403 58.1687 81.1013 58.3987 81.0576 58.6239C81.0237 58.84 80.9899 59.0466 80.9565 59.2438C80.7735 60.465 80.6764 61.1085 80.6652 61.1742C80.2176 64.2088 79.9326 65.9037 79.8101 66.2588C79.8691 66.1661 80.0159 65.9624 80.2505 65.6479C80.4851 65.3334 80.8068 64.9364 81.2155 64.4567C81.6334 63.9867 82.0842 63.5222 82.5678 63.0634C83.4287 62.2466 84.4872 61.0861 85.7434 59.5818C86.1618 59.0929 86.4242 58.798 86.5306 58.6971C86.8982 58.3483 87.2792 58.3819 87.6739 58.7979C87.7656 58.8946 87.7329 59.0635 87.5757 59.3046C87.4281 59.5365 87.0443 59.9649 86.4243 60.59C85.8042 61.215 84.7929 62.1929 83.3904 63.5235C82.9455 63.9457 82.524 64.3732 82.1259 64.806C81.737 65.2485 81.3919 65.6402 81.0906 65.9813C80.6819 66.4609 80.3614 66.8109 80.1293 67.0312L79.6207 67.5412ZM88.692 80.0371C88.3815 80.3684 88.1814 80.6226 88.0919 80.7994C87.9927 80.9854 87.9416 81.135 87.9386 81.2481C87.926 81.3703 87.8955 81.4544 87.8471 81.5003C87.7794 81.5646 87.6895 81.5763 87.5774 81.5357C87.4745 81.5047 87.3817 81.4456 87.2991 81.3586C87.0972 81.1458 86.9903 80.9072 86.9784 80.6428C86.966 80.3973 87.0759 80.1644 87.308 79.9441C88.5267 78.7878 89.5322 77.8522 90.3244 77.1374L91.6432 75.9413C92.5703 75.1168 93.2563 74.4935 93.7012 74.0714C90.6265 75.1506 88.1022 75.7445 86.1282 75.8529C84.1445 75.9705 82.6066 75.4538 81.5145 74.3028C80.707 73.4516 80.3762 72.5799 80.5223 71.6878C80.6683 70.7957 81.2927 69.8265 82.3954 68.7803C83.8753 67.3762 85.6379 66.3379 87.6833 65.6655C89.7384 64.9839 91.7065 64.7432 93.5875 64.9436C95.4776 65.1536 96.9321 65.7954 97.9507 66.8691C98.2719 67.2076 98.3812 67.5359 98.2785 67.8538C98.185 68.1815 98.0222 68.4554 97.7901 68.6757C97.5482 68.9051 97.3319 69.0645 97.1409 69.1538C96.9688 69.2435 96.8552 69.2594 96.8001 69.2014C96.7542 69.153 96.761 69.073 96.8206 68.9614C96.8893 68.8595 97.0211 68.6885 97.216 68.4484C97.4013 68.2175 97.5101 68.0223 97.5426 67.8628C97.5848 67.6941 97.5233 67.5228 97.3581 67.3486C96.5138 66.4588 95.2067 65.9528 93.4368 65.8309C91.6761 65.7186 89.8301 65.9813 87.8988 66.619C85.9863 67.2572 84.3965 68.1774 83.1294 69.3796C82.3266 70.1413 81.8266 70.8638 81.6294 71.5471C81.4318 72.2493 81.6633 72.9486 82.3241 73.645C83.0399 74.3995 84.0002 74.8208 85.2051 74.9091C86.41 74.9973 87.6815 74.8846 89.0196 74.5708C90.3765 74.2575 92.1011 73.77 94.1934 73.1082C93.6286 72.7067 92.779 72.1986 91.6445 71.584C91.1609 71.3261 90.9191 71.1971 90.9191 71.1971L90.2356 70.8255C89.7703 70.5869 89.3983 70.3885 89.1195 70.2303C88.8504 70.0629 88.647 69.9066 88.5094 69.7615C88.4176 69.6648 88.3877 69.5461 88.4197 69.4055C88.4705 69.2654 88.5492 69.1448 88.6556 69.0439C88.791 68.9154 89.1145 68.9852 89.6262 69.2533C90.1475 69.5122 90.8715 69.9557 91.7982 70.5836C92.1595 70.8289 92.6978 71.1637 93.4128 71.5881C93.5336 71.6573 93.8863 71.874 94.4709 72.2384C95.0647 72.6124 95.4533 72.8961 95.6369 73.0895C95.6552 73.1089 95.7057 73.1621 95.7883 73.2491C95.8801 73.3459 95.9056 73.4503 95.8649 73.5624C95.8339 73.6653 95.7411 73.7902 95.5863 73.937C95.4992 74.0196 95.3668 74.035 95.189 73.9832L94.058 75.0286C93.276 75.7154 92.4401 76.481 91.5502 77.3253L89.49 79.28L88.692 80.0371ZM93.1816 82.3282C93.0365 82.4659 92.8125 82.3751 92.5097 82.0559C92.3353 81.8721 92.2811 81.6019 92.3471 81.2452C92.4125 80.9074 92.5251 80.5709 92.6848 80.2355C92.8634 79.9007 92.9914 79.6966 93.0688 79.6232C93.1751 79.5222 93.3226 79.4742 93.5111 79.4792C93.7088 79.4938 93.8581 79.5543 93.959 79.6607C94.0233 79.7284 94.0447 79.8092 94.0234 79.9029C94.0117 79.9875 93.9798 80.1281 93.9274 80.3248C93.8451 80.5867 93.8119 80.7745 93.8277 80.8881C93.8503 81.1056 93.7677 81.3769 93.58 81.7021C93.4014 82.0369 93.2686 82.2456 93.1816 82.3282ZM96.0987 85.4028C95.9536 85.5405 95.7296 85.4497 95.4268 85.1305C95.2524 84.9468 95.1982 84.6765 95.2642 84.3199C95.3297 83.9821 95.4422 83.6455 95.602 83.3102C95.7805 82.9753 95.9085 82.7712 95.9859 82.6978C96.0923 82.5968 96.2397 82.5489 96.4282 82.5538C96.6259 82.5684 96.7752 82.6289 96.8762 82.7353C96.9404 82.8031 96.9619 82.8838 96.9405 82.9775C96.9289 83.0621 96.8969 83.2027 96.8446 83.3994C96.7622 83.6613 96.729 83.8491 96.7449 83.9627C96.7674 84.1802 96.6849 84.4515 96.4971 84.7767C96.3186 85.1115 96.1857 85.3202 96.0987 85.4028ZM99.0158 88.4775C98.8707 88.6151 98.6468 88.5244 98.3439 88.2052C98.1696 88.0214 98.1154 87.7512 98.1813 87.3945C98.2468 87.0567 98.3594 86.7201 98.5191 86.3848C98.6977 86.05 98.8256 85.8458 98.903 85.7724C99.0094 85.6715 99.1569 85.6235 99.3454 85.6284C99.543 85.6431 99.6923 85.7036 99.7933 85.81C99.8575 85.8777 99.879 85.9584 99.8577 86.0522C99.846 86.1367 99.814 86.2774 99.7617 86.4741C99.6794 86.736 99.6461 86.9237 99.662 87.0373C99.6846 87.2548 99.602 87.5262 99.4143 87.8513C99.2357 88.1862 99.1029 88.3949 99.0158 88.4775Z" fill="black"/>
<defs>
<filter id="filter0_d_160_23" x="21.5044" y="18.1027" width="109.652" height="94.714" filterUnits="userSpaceOnUse" color-interpolation-filters="sRGB">
<feFlood flood-opacity="0" result="BackgroundImageFix"/>
<feColorMatrix in="SourceAlpha" type="matrix" values="0 0 0 0 0 0 0 0 0 0 0 0 0 0 0 0 0 0 127 0" result="hardAlpha"/>
<feOffset dy="4"/>
<feGaussianBlur stdDeviation="2"/>
<feComposite in2="hardAlpha" operator="out"/>
<feColorMatrix type="matrix" values="0 0 0 0 0 0 0 0 0 0 0 0 0 0 0 0 0 0 0.25 0"/>
<feBlend mode="normal" in2="BackgroundImageFix" result="effect1_dropShadow_160_23"/>
<feBlend mode="normal" in="SourceGraphic" in2="effect1_dropShadow_160_23" result="shape"/>
</filter>
</defs>
</svg>
