<svg width="87" height="1159" viewBox="0 0 87 1159" fill="none" xmlns="http://www.w3.org/2000/svg">
<path d="M87 209H6V288H87" stroke="#F7F7F7" stroke-width="3"/>
<path d="M87 288H6V367H87" stroke="#F7F7F7" stroke-width="3"/>
<path d="M87 367H6V446H87" stroke="#F7F7F7" stroke-width="3"/>
<path d="M87 446H6V525H87" stroke="#F7F7F7" stroke-width="3"/>
<path d="M87 525H6V604H87" stroke="#F7F7F7" stroke-width="3"/>
<path d="M87 604H6V683H87" stroke="#F7F7F7" stroke-width="3"/>
<path d="M87 683H6V762H87" stroke="#F7F7F7" stroke-width="3"/>
<path d="M87 762H6V841H87" stroke="#F7F7F7" stroke-width="3"/>
<path d="M87 841H6V920H87" stroke="#F7F7F7" stroke-width="3"/>
<path d="M87 920H6V999H87" stroke="#F7F7F7" stroke-width="3"/>
<path d="M87 999H6V1078H87" stroke="#F7F7F7" stroke-width="3"/>
<path d="M87 1078H6V1157H87" stroke="#F7F7F7" stroke-width="3"/>
<path d="M0 0H87V523H43.5H4.5L0 0Z" fill="white"/>
</svg>
