<svg width="64" height="723" viewBox="0 0 64 723" fill="none" xmlns="http://www.w3.org/2000/svg">
<path d="M63.4335 2H2V61.9167H63.4335" stroke="#FBFBFB" stroke-width="3"/>
<path d="M63.4335 61.9167H2V121.833H63.4335" stroke="#FBFBFB" stroke-width="3"/>
<path d="M63.4335 121.833H2V181.75H63.4335" stroke="#FBFBFB" stroke-width="3"/>
<path d="M63.4335 181.75H2V241.667H63.4335" stroke="#FBFBFB" stroke-width="3"/>
<path d="M63.4335 241.667H2V301.583H63.4335" stroke="#FBFBFB" stroke-width="3"/>
<path d="M63.4335 301.583H2V361.5H63.4335" stroke="#FBFBFB" stroke-width="3"/>
<path d="M63.4335 361.5H2V421.417H63.4335" stroke="#FBFBFB" stroke-width="3"/>
<path d="M63.4335 421.417H2V481.333H63.4335" stroke="#FBFBFB" stroke-width="3"/>
<path d="M63.4335 481.333H2V541.25H63.4335" stroke="#FBFBFB" stroke-width="3"/>
<path d="M63.4335 541.25H2V601.167H63.4335" stroke="#FBFBFB" stroke-width="3"/>
<path d="M63.4335 601.167H2V661.083H63.4335" stroke="#FBFBFB" stroke-width="3"/>
<path d="M63.4335 661.083H2V721H63.4335" stroke="#FBFBFB" stroke-width="3"/>
</svg>
