<svg width="83" height="952" viewBox="0 0 83 952" fill="none" xmlns="http://www.w3.org/2000/svg">
<path d="M83 2H2V81H83" stroke="#F7F7F7" stroke-width="3"/>
<path d="M83 81H2V160H83" stroke="#F7F7F7" stroke-width="3"/>
<path d="M83 160H2V239H83" stroke="#F7F7F7" stroke-width="3"/>
<path d="M83 239H2V318H83" stroke="#F7F7F7" stroke-width="3"/>
<path d="M83 318H2V397H83" stroke="#F7F7F7" stroke-width="3"/>
<path d="M83 397H2V476H83" stroke="#F7F7F7" stroke-width="3"/>
<path d="M83 476H2V555H83" stroke="#F7F7F7" stroke-width="3"/>
<path d="M83 555H2V634H83" stroke="#F7F7F7" stroke-width="3"/>
<path d="M83 634H2V713H83" stroke="#F7F7F7" stroke-width="3"/>
<path d="M83 713H2V792H83" stroke="#F7F7F7" stroke-width="3"/>
<path d="M83 792H2V871H83" stroke="#F7F7F7" stroke-width="3"/>
<path d="M83 871H2V950H83" stroke="#F7F7F7" stroke-width="3"/>
</svg>
