<svg width="65" height="923" viewBox="0 0 65 923" fill="none" xmlns="http://www.w3.org/2000/svg">
<path d="M64 58.625V1H1V58.625H64Z" fill="white" stroke="#F5F5F5" stroke-width="2"/>
<path d="M64 116.25V58.625H1V116.25H64Z" fill="white" stroke="#F5F5F5" stroke-width="2"/>
<path d="M64 173.875V116.25H1V173.875H64Z" fill="white" stroke="#F5F5F5" stroke-width="2"/>
<path d="M64 231.5V173.875H1V231.5H64Z" fill="white" stroke="#F5F5F5" stroke-width="2"/>
<path d="M64 289.125V231.5H1V289.125H64Z" fill="white" stroke="#F5F5F5" stroke-width="2"/>
<path d="M64 346.75V289.125H1V346.75H64Z" fill="white" stroke="#F5F5F5" stroke-width="2"/>
<path d="M64 404.375V346.75H1V404.375H64Z" fill="white" stroke="#F5F5F5" stroke-width="2"/>
<path d="M64 462V404.375H1V462H64Z" fill="white" stroke="#F5F5F5" stroke-width="2"/>
<path d="M64 518.625V461H1V518.625H64Z" fill="white" stroke="#F5F5F5" stroke-width="2"/>
<path d="M64 576.25V518.625H1V576.25H64Z" fill="white" stroke="#F5F5F5" stroke-width="2"/>
<path d="M64 633.875V576.25H1V633.875H64Z" fill="white" stroke="#F5F5F5" stroke-width="2"/>
<path d="M64 691.5V633.875H1V691.5H64Z" fill="white" stroke="#F5F5F5" stroke-width="2"/>
<path d="M64 749.125V691.5H1V749.125H64Z" fill="white" stroke="#F5F5F5" stroke-width="2"/>
<path d="M64 806.75V749.125H1V806.75H64Z" fill="white" stroke="#F5F5F5" stroke-width="2"/>
<path d="M64 864.375V806.75H1V864.375H64Z" fill="white" stroke="#F5F5F5" stroke-width="2"/>
<path d="M64 922V864.375H1V922H64Z" fill="white" stroke="#F5F5F5" stroke-width="2"/>
</svg>
