<svg width="65" height="922" viewBox="0 0 65 922" fill="none" xmlns="http://www.w3.org/2000/svg">
<path d="M1 0V57.625H64V0" stroke="#F5F5F5" stroke-opacity="0.6" stroke-width="2"/>
<path d="M64 115.25V57.625H1V115.25H64Z" fill="white" stroke="#F5F5F5" stroke-opacity="0.6" stroke-width="2"/>
<path d="M64 172.875V115.25H1V172.875H64Z" fill="white" stroke="#F5F5F5" stroke-opacity="0.6" stroke-width="2"/>
<path d="M64 230.5V172.875H1V230.5H64Z" fill="white" stroke="#F5F5F5" stroke-opacity="0.6" stroke-width="2"/>
<path d="M64 288.125V230.5H1V288.125H64Z" fill="white" stroke="#F5F5F5" stroke-opacity="0.6" stroke-width="2"/>
<path d="M64 345.75V288.125H1V345.75H64Z" fill="white" stroke="#F5F5F5" stroke-opacity="0.6" stroke-width="2"/>
<path d="M64 403.375V345.75H1V403.375H64Z" fill="white" stroke="#F5F5F5" stroke-opacity="0.6" stroke-width="2"/>
<path d="M64 461V403.375H1V461H64Z" fill="white" stroke="#F5F5F5" stroke-opacity="0.6" stroke-width="2"/>
<path d="M64 517.625V460H1V517.625H64Z" fill="white" stroke="#F5F5F5" stroke-opacity="0.6" stroke-width="2"/>
<path d="M64 575.25V517.625H1V575.25H64Z" fill="white" stroke="#F5F5F5" stroke-opacity="0.6" stroke-width="2"/>
<path d="M64 632.875V575.25H1V632.875H64Z" fill="white" stroke="#F5F5F5" stroke-opacity="0.6" stroke-width="2"/>
<path d="M64 690.5V632.875H1V690.5H64Z" fill="white" stroke="#F5F5F5" stroke-opacity="0.6" stroke-width="2"/>
<path d="M64 748.125V690.5H1V748.125H64Z" fill="white" stroke="#F5F5F5" stroke-opacity="0.6" stroke-width="2"/>
<path d="M64 805.75V748.125H1V805.75H64Z" fill="white" stroke="#F5F5F5" stroke-opacity="0.6" stroke-width="2"/>
<path d="M64 863.375V805.75H1V863.375H64Z" fill="white" stroke="#F5F5F5" stroke-opacity="0.6" stroke-width="2"/>
<path d="M64 921V863.375H1V921H64Z" fill="white" stroke="#F5F5F5" stroke-opacity="0.6" stroke-width="2"/>
</svg>
