<svg width="69" height="79" viewBox="0 0 69 79" fill="none" xmlns="http://www.w3.org/2000/svg">
<g clip-path="url(#clip0_1_6733)">
<path d="M50.7271 70.4098L53.0352 62.3789C59.6948 57.9284 64.4669 51.1426 66.4137 43.3554C68.3604 35.5683 67.3409 27.343 63.5555 20.2966C59.7701 13.2502 53.4927 7.89228 45.9572 5.27606C38.4217 2.65984 30.1732 2.97456 22.8331 6.15838C15.4931 9.3422 9.59239 15.1648 6.291 22.4817C2.98961 29.7985 2.5263 38.0803 4.99217 45.6991C7.45803 53.3178 12.6747 59.7225 19.6167 63.6541C26.5587 67.5856 34.7239 68.7597 42.5073 66.9455L50.7271 70.4098Z" fill="#F8F8F8"/>
<path d="M50.7658 70.3901C50.7658 70.3901 50.5612 70.3743 50.2544 70.2056L48.6678 69.5583C47.2446 68.9792 45.1691 68.1457 42.5198 67.0512L42.2977 66.9554L42.5145 66.8353L42.5993 67.0562C35.9166 68.6569 28.9045 68.0267 22.6198 65.2604C21.8275 64.949 21.0911 64.485 20.2702 64.0962L19.0924 63.4744L17.9058 62.7395C14.6477 60.6329 11.8045 57.9381 9.51876 54.79C6.98933 51.3001 5.18444 47.3307 4.21167 43.1185C3.16752 38.5542 3.1101 33.8144 4.0433 29.2204C5.08412 24.2096 7.29254 19.5171 10.4861 15.5307C13.6796 11.5442 17.7665 8.37836 22.4092 6.29463L24.2467 5.50815L26.1423 4.88772C27.403 4.50302 28.6841 4.19011 29.9794 3.9505C35.8995 2.92055 41.9833 3.59077 47.5341 5.88438C53.085 8.17798 57.8785 12.0023 61.3659 16.9194C64.8533 21.8365 66.8936 27.6477 67.2531 33.6876C67.6127 39.7275 66.2769 45.7519 63.3989 51.0712C60.9002 55.661 57.3157 59.4959 52.9715 62.3674L51.224 68.8473L50.7216 70.3611L50.6578 70.3662L50.8107 69.8846L51.1314 68.5389L52.7184 62.3082C58.1801 58.6159 62.366 53.3001 64.6918 47.103C67.0175 40.9058 67.367 34.1367 65.6914 27.7406C64.0158 21.3445 60.3988 15.6407 55.3454 11.4256C50.292 7.21046 44.0543 4.69434 37.5033 4.22856C34.9621 4.04117 32.4068 4.16804 29.8944 4.60632C28.6241 4.83543 27.3686 5.14251 26.135 5.52584L24.5391 6.07643L22.7344 6.84885C17.5587 9.16811 13.0962 12.8502 9.81732 17.5068C6.53847 22.1635 4.56483 27.6221 4.10453 33.3071C3.64422 38.9921 4.71431 44.6927 7.20196 49.808C9.6896 54.9232 13.5026 59.2635 18.2389 62.371C18.6192 62.6134 18.9891 62.868 19.3581 63.1113L20.5351 63.7218C21.3111 64.1142 22.0362 64.5791 22.8173 64.8915C24.2992 65.5397 25.8249 66.0818 27.383 66.5137C32.3503 67.8287 37.5615 67.9216 42.5783 66.7846L43.1852 66.9631L48.6677 69.4104C49.3451 69.697 49.8714 69.9275 50.2464 70.1021C50.6223 70.2879 50.7658 70.3901 50.7658 70.3901Z" fill="#263238"/>
<g clip-path="url(#clip1_1_6733)">
<path d="M26.0215 39.0624C26.0215 40.7906 24.6758 42.1875 23.0107 42.1875C21.3457 42.1875 20 40.7906 20 39.0624C20 37.3342 21.3457 35.9375 23.0109 35.9375H26.0214L26.0215 39.0624ZM27.5269 39.0624C27.5269 37.3342 28.8726 35.9375 30.5376 35.9375C32.2027 35.9375 33.5484 37.3342 33.5484 39.0625V46.8749C33.5484 48.6031 32.2027 50 30.5375 50C28.8727 50 27.5269 48.6031 27.5269 46.8749V39.0624Z" fill="#E01E5A"/>
<path d="M30.5427 26.2395C28.8804 26.2395 27.5369 24.8451 27.5369 23.1197C27.5369 21.3944 28.8805 20 30.5427 20C32.2049 20 33.5484 21.3944 33.5484 23.1197V26.2396H30.5426L30.5427 26.2395ZM30.5427 27.823C32.205 27.823 33.5484 29.2174 33.5484 30.9428C33.5484 32.6681 32.205 34.0625 30.5426 34.0625H23.0058C21.3434 34.0625 20 32.6681 20 30.9426C20 29.2175 21.3434 27.823 23.0057 27.823H30.5427Z" fill="#36C5F0"/>
<path d="M43.9781 30.9428C43.9781 29.2174 45.3238 27.8229 46.9887 27.8229C48.6538 27.8229 49.9996 29.2174 49.9996 30.9428C49.9996 32.6681 48.6538 34.0625 46.9887 34.0625H43.9781V30.9428ZM42.4727 30.9428C42.4727 32.6681 41.1269 34.0625 39.4618 34.0625C37.7969 34.0625 36.4512 32.6681 36.4512 30.9426V23.1199C36.4512 21.3944 37.7969 20 39.4618 20C41.1268 20 42.4725 21.3944 42.4725 23.1197L42.4727 30.9428Z" fill="#2EB67D"/>
<path d="M39.4567 43.75C41.119 43.75 42.4625 45.1468 42.4625 46.8749C42.4625 48.6031 41.119 50 39.4567 50C37.7946 50 36.4512 48.6031 36.4512 46.8749V43.75H39.4567ZM39.4567 42.1875C37.7946 42.1875 36.4512 40.7906 36.4512 39.0624C36.4512 37.3342 37.7946 35.9375 39.4569 35.9375H46.9938C48.656 35.9375 49.9996 37.3342 49.9996 39.0625C49.9996 40.7906 48.656 42.1875 46.9938 42.1875H39.4567Z" fill="#ECB22E"/>
</g>
</g>
<defs>
<clipPath id="clip0_1_6733">
<rect width="69" height="79" fill="white"/>
</clipPath>
<clipPath id="clip1_1_6733">
<rect width="30" height="30" fill="white" transform="translate(20 20)"/>
</clipPath>
</defs>
</svg>
