<svg width="51" height="57" viewBox="0 0 51 57" fill="none" xmlns="http://www.w3.org/2000/svg">
<path d="M2.58632 15.5455C1.85353 15.5455 1.23971 15.2976 0.744861 14.8019C0.248287 14.3044 0 13.6886 0 12.9545V4.53409C0 3.97273 0.183629 3.50809 0.550887 3.14018C0.91642 2.774 1.37937 2.59091 1.93974 2.59091C2.50011 2.59091 2.96393 2.774 3.33118 3.14018C3.69672 3.50809 3.87948 3.97273 3.87948 4.53409V7.8375C6.89686 5.37614 10.2703 3.45455 13.9998 2.07273C17.7275 0.690909 21.682 0 25.8632 0C32.1566 0 37.4698 1.32741 41.8027 3.98223C46.134 6.63877 49.1186 9.62955 50.7566 12.9545C51.1014 13.6455 51.0799 14.25 50.6919 14.7682C50.304 15.2864 49.7005 15.5455 48.8815 15.5455C48.4073 15.5455 48.0409 15.4375 47.7823 15.2216C47.5237 15.0057 47.3082 14.725 47.1357 14.3795C45.8426 11.9182 43.4071 9.55355 39.8294 7.28564C36.2516 5.01945 31.5962 3.88636 25.8632 3.88636C21.9406 3.88636 18.2448 4.57727 14.7757 5.95909C11.3048 7.34091 8.19002 9.24091 5.43128 11.6591H10.9919C11.5522 11.6591 12.0152 11.843 12.3807 12.211C12.748 12.5771 12.9316 13.0409 12.9316 13.6023C12.9316 14.1636 12.748 14.6274 12.3807 14.9936C12.0152 15.3615 11.5522 15.5455 10.9919 15.5455H2.58632ZM22.1131 57C21.3803 57 20.6906 56.8592 20.044 56.5777C19.3974 56.2979 18.8371 55.9205 18.3629 55.4455L8.72884 45.7943C7.86673 44.9307 7.38136 43.8511 7.27274 42.5557C7.16584 41.2602 7.41412 40.0943 8.0176 39.058C8.57797 38.108 9.34352 37.4386 10.3143 37.05C11.2833 36.6614 12.1988 36.575 13.0609 36.7909L18.1043 37.9568V16.8409C18.1043 15.0273 18.7293 13.4943 19.9793 12.242C21.2294 10.9898 22.7596 10.3636 24.5701 10.3636C26.3805 10.3636 27.9107 10.9898 29.1608 12.242C30.4108 13.4943 31.0359 15.0273 31.0359 16.8409V27.9818H32.717C32.9325 27.9818 33.1265 28.025 33.2989 28.1114C33.4713 28.1977 33.6653 28.2841 33.8808 28.3705L43.4502 33.0341C44.4847 33.5091 45.2503 34.2751 45.7469 35.3322C46.2417 36.391 46.3814 37.4818 46.1659 38.6045L43.8382 52.725C43.6226 53.9773 43.0192 55.0033 42.0277 55.803C41.0363 56.601 39.9156 57 38.6655 57H22.1131ZM22.1131 51.8182H38.6655L41.1225 37.6977L30.3893 32.3864H25.8632V16.8409C25.8632 16.4523 25.7451 16.1388 25.5089 15.9004C25.271 15.6638 24.958 15.5455 24.5701 15.5455C24.1821 15.5455 23.8692 15.6638 23.6312 15.9004C23.395 16.1388 23.2769 16.4523 23.2769 16.8409V44.3045L12.285 41.9727L22.1131 51.8182Z" fill="#DDDDDD"/>
</svg>
